<svg width="888" height="142" viewBox="0 0 888 142" fill="none" xmlns="http://www.w3.org/2000/svg">
<path d="M2.1647 1.51953H105.229L122.114 19.5709L64.4676 77.7994L9.73387 23.6474L8.57036 17.2417C8.57036 17.2417 4.78472 10.5452 2.1647 7.9252C-0.455322 5.30518 2.1647 1.51953 2.1647 1.51953Z" fill="black" stroke="black" stroke-miterlimit="10"/>
<path d="M19.6345 136.026C19.6345 136.026 131.724 23.3544 134.344 20.7344C136.964 18.1144 128.522 13.747 125.609 10.8361C122.698 7.92516 126.191 1.51953 129.686 1.51953H243.814C247.89 1.51953 251.965 10.8361 254.294 13.1652C256.623 15.4943 140.895 128.602 136.964 132.533C133.033 136.464 129.686 133.115 122.117 133.115H81.9396L74.3704 140.684H19.6345V136.026Z" fill="black" stroke="black" stroke-miterlimit="10"/>
<path d="M203.052 104H292.723L375.991 21.3162L357.939 1.51953H282.243C282.243 1.51953 195.483 88.2795 192.572 91.1904C189.661 94.1013 194.32 97.0122 195.483 98.1778C196.647 99.3413 203.052 104 203.052 104Z" fill="black" stroke="black" stroke-miterlimit="10"/>
<path d="M408.017 1.51953C408.017 1.51953 282.534 125.255 279.332 128.457C276.13 131.658 271.181 140.684 286.32 140.684H381.814L494.195 26.5562V18.987C494.195 18.987 504.675 9.67046 505.84 6.75957C507.004 3.84867 506.422 1.51953 502.93 1.51953H408.017Z" fill="black" stroke="black" stroke-miterlimit="10"/>
<path d="M474.978 55.6714C474.978 55.6714 508.749 23.0634 511.662 20.1525C514.573 17.2416 516.902 21.8999 516.902 31.2165V45.1913C516.902 47.5205 502.927 57.4187 500.598 59.7479C498.269 62.077 476.143 59.7479 474.978 59.7479C473.812 59.7479 474.978 55.6714 474.978 55.6714Z" fill="black" stroke="black" stroke-miterlimit="10"/>
<path d="M466.245 64.9879C466.245 64.9879 419.662 111.571 416.169 115.063C412.676 118.556 415.006 122.633 420.827 122.633H519.233C523.891 122.633 549.803 92.6446 552.423 90.0246C555.043 87.4046 552.423 82.4554 552.423 82.4554C552.423 82.4554 562.757 74.157 565.816 71.1006C568.872 68.0443 567.563 64.9858 562.905 64.9858H466.247L466.245 64.9879Z" fill="black" stroke="black" stroke-miterlimit="10"/>
<path d="M522.144 1.51969H628.702L642.677 19.2907V30.6329L665.387 51.0134V56.2534H573.969L567.468 49.8477L558.246 49.266C558.246 49.266 529.133 14.3289 525.057 10.2524C520.98 6.17587 517.778 1.51758 522.146 1.51758L522.144 1.51969Z" fill="black" stroke="black" stroke-miterlimit="10"/>
<path d="M577.46 64.4045H675.575C675.575 64.4045 725.65 114.48 728.125 116.955C730.6 119.429 728.852 120.886 724.194 120.886H619.673L588.231 88.8594V82.7446C588.231 82.7446 580.226 72.117 577.458 69.3515C574.693 66.586 575.42 64.4023 577.458 64.4023L577.46 64.4045Z" fill="black" stroke="black" stroke-miterlimit="10"/>
<path d="M640.347 1.51953H740.209C740.209 1.51953 863.944 127.002 867.146 130.204C870.348 133.406 869.475 138.648 865.982 138.648H762.918L652.45 27.1401V19.28L640.347 8.21605V1.51953Z" fill="black" stroke="black" stroke-miterlimit="10"/>
<path d="M774.271 23.6452C774.271 23.6452 824.785 73.8661 826.968 76.0498C829.152 78.2335 831.481 76.777 834.247 74.0116C837.012 71.2461 883.159 25.0996 885.051 23.2068C886.944 21.314 887.671 19.4212 883.449 15.2013C879.227 10.9794 869.449 1.20117 869.449 1.20117H769.615C764.956 1.20117 763.063 6.32105 767.285 10.543C771.507 14.765 775.145 18.4031 775.145 18.4031L774.273 23.6431L774.271 23.6452Z" fill="black" stroke="black" stroke-miterlimit="10"/>
</svg>
