<svg width="48" height="48" viewBox="0 0 48 48" fill="none" xmlns="http://www.w3.org/2000/svg">
<circle cx="24" cy="24" r="24" fill="#E0E2F0"/>
<path d="M28.42 19.9501C30.86 22.3901 30.86 26.3501 28.42 28.7901C25.98 31.2301 22.02 31.2301 19.58 28.7901C17.14 26.3501 17.14 22.3901 19.58 19.9501C22.02 17.5101 25.98 17.5101 28.42 19.9501Z" stroke="black" stroke-width="1.5" stroke-linecap="round" stroke-linejoin="round"/>
<path d="M20.25 33.6399C18.25 32.8399 16.5 31.3899 15.34 29.3799C14.2 27.4099 13.82 25.2199 14.09 23.1299" stroke="black" stroke-width="1.5" stroke-linecap="round" stroke-linejoin="round"/>
<path d="M17.8501 16.4799C19.5501 15.1499 21.6801 14.3599 24.0001 14.3599C26.2701 14.3599 28.3601 15.1299 30.0401 16.4099" stroke="black" stroke-width="1.5" stroke-linecap="round" stroke-linejoin="round"/>
<path d="M27.75 33.6399C29.75 32.8399 31.5 31.3899 32.66 29.3799C33.8 27.4099 34.18 25.2199 33.91 23.1299" stroke="black" stroke-width="1.5" stroke-linecap="round" stroke-linejoin="round"/>
</svg>
