<svg width="1425" height="2278" viewBox="0 0 1425 2278" fill="none" xmlns="http://www.w3.org/2000/svg">
<path d="M1424.39 1335.6L1402.92 1341.74C1390.65 1642.45 1277.1 1792.82 1089.94 1918.64C902.756 2044.46 706.374 2026.04 635.791 2016.84C565.209 2007.64 491.573 1992.29 368.827 1918.64C246.081 1845 190.843 1752.93 190.843 1752.93L215.388 1737.58C215.388 1737.58 362.681 1958.51 614.3 1989.2C865.919 2019.89 951.846 1964.66 1074.57 1894.07C1197.32 1823.49 1274.03 1713.04 1326.19 1599.49C1378.36 1485.96 1369.16 1344.8 1369.16 1344.8H1329.26C1329.26 1344.8 1329.27 1228.2 1286.3 1114.65C1243.34 1001.12 1157.43 924.396 1157.43 924.396L1185.05 890.65C1111.41 813.941 890.464 672.776 635.772 712.667C381.08 752.558 278.873 893.704 278.873 893.704C278.873 893.704 384.153 991.905 405.645 1016.45C427.117 1041 405.606 1053.31 393.314 1041C381.002 1028.68 235.345 887.577 235.345 887.577C279.846 841.54 439.409 697.322 635.791 681.976C832.173 666.63 905.829 700.394 997.884 734.139C1089.94 767.884 1217.47 875.285 1217.47 875.285V856.866L1172.79 816.976L1217.47 721.848L1010.16 596.029L956.456 694.229L930.374 681.957L1069.03 457.956L856.719 326.01L669.536 651.265H635.791L956.456 138.828L731.406 0.736206L249.153 820.029L227.681 798.557C74.2629 918.23 0.607422 1169.85 0.607422 1169.85L46.6444 1185.19C19.026 1249.63 34.3725 1467.5 34.3725 1467.5L19.0256 1470.58C22.0987 1504.32 25.173 1565.71 55.8449 1639.34C86.5363 1712.98 138.699 1786.63 138.699 1786.63L166.318 1765.16L236.901 1860.29L190.864 1952.34L399.517 2078.16L454.755 1992.25L470.1 2007.6L396.465 2127.27L620.465 2256.15L730.938 2041.34L764.683 2047.49L706.374 2151.82L921.174 2277.64L1037.77 2072.04C1080.74 2056.69 1166.65 2010.67 1246.43 1943.16C1326.21 1875.65 1399.85 1768.25 1399.85 1768.25L1326.21 1719.16C1341.56 1694.62 1372.25 1636.31 1399.85 1541.18C1427.47 1446.05 1424.39 1335.58 1424.39 1335.58V1335.6ZM700.208 804.742C700.208 804.742 868.972 789.396 997.865 869.178C1126.74 948.96 1175.85 1034.89 1175.85 1034.89H1206.54C1206.54 1034.89 1270.97 1123.87 1286.32 1222.07H1261.77C1261.77 1222.07 1292.47 1360.16 1261.77 1485.96C1231.08 1611.78 1114.48 1746.78 1114.48 1746.78L1037.77 1667C1037.77 1667 1132.9 1596.42 1157.45 1439.93C1181.99 1283.43 1172.79 1160.69 1022.43 1016.47C872.065 872.251 700.227 905.996 700.227 905.996V804.742H700.208ZM725.318 1002.25C918.199 1002.25 1074.57 1158.63 1074.57 1351.51C1074.57 1544.39 918.199 1700.76 725.318 1700.76C532.437 1700.76 376.062 1544.39 376.062 1351.51C376.062 1158.63 532.437 1002.25 725.318 1002.25ZM144.806 1749.85C60.7253 1623.43 43.5522 1504.36 43.5522 1504.36L200.043 1470.62C172.425 1335.6 200.043 1200.58 200.043 1200.58L107.988 1185.23C68.0973 1286.49 89.5702 1458.32 89.5702 1458.32H68.0978C68.0978 1458.32 57.75 1419.58 57.75 1318.33C57.75 1217.07 88.8104 1128.46 88.8104 1128.46L210.779 1167.59C223.012 1126.5 239.934 1093.18 239.934 1093.18L338.135 1139.22C263.235 1250.74 279.826 1424.6 325.863 1525.85C371.9 1627.11 414.843 1670.07 509.971 1731.45C605.099 1792.82 712.539 1798.96 712.539 1798.96V1838.86C611.324 1841.93 497.699 1792.82 497.699 1792.82L485.428 1838.86C332.009 1768.27 276.772 1651.67 276.772 1651.67L144.827 1749.87L144.806 1749.85Z" fill="black"/>
</svg>
